<?xml version="1.0" encoding="utf-8" ?>
<svg xmlns="http://www.w3.org/2000/svg" xmlns:xlink="http://www.w3.org/1999/xlink" width="1024" height="1024">
	<path d="M696.018 227.012C696.497 227.002 696.973 226.98 697.452 226.991C702.77 227.114 709.762 233.521 713.927 236.553C736.016 252.633 754.19 268.542 772.771 288.578Q775.42 291.481 777.998 294.446Q780.576 297.411 783.082 300.438Q785.588 303.465 788.02 306.551Q790.453 309.637 792.81 312.78Q795.168 315.924 797.449 319.123Q799.73 322.322 801.934 325.575Q804.138 328.829 806.263 332.134Q808.388 335.439 810.432 338.795Q812.477 342.15 814.441 345.554Q816.404 348.957 818.285 352.407Q820.166 355.857 821.964 359.351Q823.762 362.845 825.475 366.381Q827.188 369.918 828.815 373.494Q830.443 377.071 831.984 380.685Q833.525 384.3 834.979 387.95Q836.432 391.601 837.798 395.285Q839.163 398.97 840.44 402.686Q841.717 406.402 842.903 410.148Q844.09 413.894 845.187 417.667Q846.283 421.441 847.288 425.239Q848.294 429.038 849.208 432.859Q850.121 436.681 850.943 440.524Q851.765 444.366 852.494 448.227Q853.222 452.089 853.858 455.966Q854.494 459.844 855.037 463.735Q855.579 467.627 856.028 471.531Q856.477 475.435 856.832 479.348Q857.186 483.261 857.447 487.182Q857.707 491.103 857.874 495.029Q858.04 498.954 858.112 502.883Q858.184 506.812 858.161 510.741Q858.138 514.67 858.021 518.598C857.548 530.559 854.105 577.956 846.866 584.635Q846.22 584.704 845.571 584.749C843.654 584.873 841.419 584.544 840.022 583.056C838.637 581.579 838.378 579.825 838.526 577.889C839.006 571.584 841.326 565.207 842.294 558.907C844.525 544.389 845.794 529.502 846.358 514.829C846.956 499.259 845.761 483.444 843.78 468.007C837.249 417.1 819.142 372.269 790.214 329.948Q785.823 323.418 781.109 317.117Q776.396 310.816 771.37 304.761Q766.345 298.705 761.021 292.911Q755.697 287.116 750.088 281.597C740.514 272.361 730.566 263.279 719.989 255.194C713.512 250.244 698.6 241.169 693.971 235.898C692.93 234.713 692.043 233.241 692.317 231.59C692.671 229.454 694.418 228.219 696.018 227.012Z"/>
	<path d="M329.816 226.447C330.057 226.448 330.297 226.439 330.538 226.45C332.646 226.551 334.393 227.292 335.71 228.977C336.644 230.172 337.059 231.593 336.698 233.105C335.47 238.249 324.016 243.412 319.593 246.35C307.634 254.294 296.524 263.813 286.062 273.61Q283.84 275.691 281.659 277.813Q279.477 279.936 277.335 282.1Q275.194 284.263 273.094 286.467Q270.994 288.67 268.936 290.913Q266.879 293.156 264.864 295.438Q262.849 297.719 260.877 300.039Q258.906 302.358 256.978 304.714Q255.051 307.07 253.169 309.462Q251.286 311.854 249.45 314.282Q247.613 316.709 245.823 319.171Q244.032 321.633 242.289 324.128Q240.545 326.623 238.849 329.151Q237.153 331.678 235.505 334.238Q233.857 336.797 232.258 339.387Q230.659 341.977 229.109 344.597Q227.559 347.217 226.059 349.866Q224.559 352.514 223.11 355.191Q221.66 357.868 220.262 360.571Q218.863 363.275 217.516 366.004Q216.168 368.734 214.873 371.489Q213.578 374.243 212.335 377.022Q211.092 379.8 209.902 382.602Q208.711 385.404 207.574 388.227Q206.438 391.051 205.354 393.896Q204.271 396.74 203.242 399.605Q202.212 402.47 201.237 405.353Q200.263 408.237 199.342 411.138Q198.422 414.04 197.557 416.958Q196.692 419.877 195.883 422.811Q195.073 425.746 194.319 428.695Q193.565 431.644 192.867 434.607Q192.169 437.569 191.527 440.545Q190.297 446.679 189.296 452.855Q188.294 459.031 187.522 465.239Q186.75 471.448 186.21 477.681Q185.669 483.914 185.359 490.162Q185.05 496.411 184.973 502.667Q184.895 508.923 185.05 515.177Q185.205 521.431 185.591 527.676Q185.978 533.92 186.596 540.146C187.609 551.247 188.91 562.259 191.111 573.19C192.332 579.253 193.617 585.376 195.25 591.341C196.265 595.048 197.788 598.771 198.375 602.566C198.591 603.967 198.685 605.522 198.338 606.912C197.763 609.216 196.012 610.255 194.133 611.477C193.229 611.445 192.248 611.447 191.385 611.136C189.221 610.36 188.018 607.817 187.18 605.85C183.701 597.677 181.737 584.105 179.871 575.075Q179.244 572.059 178.673 569.032Q178.102 566.005 177.587 562.968Q177.072 559.93 176.614 556.884Q176.156 553.838 175.754 550.784Q175.353 547.729 175.008 544.668Q174.664 541.607 174.376 538.54Q174.088 535.473 173.857 532.401Q173.627 529.329 173.453 526.253Q173.28 523.178 173.164 520.1Q173.047 517.021 172.988 513.941Q172.929 510.861 172.927 507.781Q172.925 504.7 172.981 501.62Q173.036 498.54 173.149 495.462Q173.262 492.383 173.432 489.307Q173.601 486.232 173.828 483.159Q174.055 480.087 174.339 477.02Q174.624 473.952 174.965 470.891Q175.306 467.829 175.703 464.775Q176.101 461.72 176.556 458.673Q177.011 455.626 177.522 452.588Q178.033 449.551 178.6 446.523Q179.168 443.495 179.791 440.478Q180.415 437.462 181.095 434.457Q181.774 431.452 182.51 428.461Q183.245 425.469 184.036 422.492Q184.827 419.515 185.673 416.553Q186.519 413.591 187.42 410.645Q188.321 407.699 189.276 404.77Q190.232 401.842 191.242 398.931Q192.252 396.021 193.315 393.13Q194.379 390.239 195.496 387.368Q196.614 384.498 197.784 381.648Q199.862 376.507 202.113 371.44Q204.364 366.373 206.787 361.386Q209.209 356.398 211.8 351.496Q214.391 346.594 217.147 341.783Q219.903 336.972 222.821 332.257Q225.739 327.542 228.816 322.93Q231.893 318.317 235.125 313.812Q238.357 309.307 241.74 304.914Q245.124 300.521 248.654 296.246Q252.185 291.971 255.86 287.819Q259.534 283.667 263.348 279.642Q267.161 275.617 271.109 271.724Q275.058 267.831 279.136 264.074Q283.214 260.318 287.418 256.703Q291.622 253.087 295.947 249.617Q300.271 246.147 304.711 242.826C312.431 237.161 320.952 230.13 329.816 226.447Z"/>
	<path d="M584.605 753.449C584.738 753.463 584.871 753.474 585.004 753.493C587.297 753.817 588.53 754.482 590.345 755.914C594.267 759.008 597.815 762.812 601.395 766.297Q612.005 776.647 622.507 787.107L638.028 802.093C640.899 804.85 644.323 807.663 646.672 810.874C647.632 812.186 649.318 814.861 648.771 816.585C648.007 818.992 588.637 876.785 586.333 877.562C585.013 878.007 583.077 877.633 581.876 876.978C580.338 876.14 579.31 874.725 579.013 872.992C578.781 871.635 578.953 870.523 579.693 869.369C582.643 864.767 588.311 860.285 592.261 856.507C603.155 846.085 618.096 833.165 627.391 821.944C611.012 822.585 594.535 822.097 578.139 822.113C528.354 822.16 478.439 820.951 428.676 822.375C439.094 834.426 451.366 845.505 462.721 856.711C467.365 861.296 472.585 865.897 476.58 871.052C477.45 872.175 478.233 873.353 478.399 874.807C478.644 876.954 477.181 878.522 475.954 880.088C474.563 880.537 472.437 881.106 471.006 880.618C469.095 879.967 412.672 823.577 410.229 819.484C409.573 818.386 409.377 816.622 409.775 815.395C410.44 813.341 412.553 811.259 414.031 809.712C419.559 803.925 466.666 758.111 469.577 756.899C471.178 756.233 473.577 756.164 475.109 757.064C476.245 757.731 477.108 758.623 477.338 759.97C477.656 761.836 476.703 763.536 475.609 764.95C471.966 769.66 466.982 773.762 462.694 777.901C451.615 788.598 439.785 799.039 429.854 810.825L559.213 811.003C582.642 811.06 606.095 810.655 629.519 811.021C618.609 798.9 606.452 787.428 594.868 775.926C590.47 771.558 584.427 766.86 581.068 761.769C580.327 760.647 580.058 758.827 580.455 757.537C581.094 755.464 582.833 754.45 584.605 753.449Z"/>
	<path d="M282.947 462.094C291.827 461.76 300.822 462.042 309.715 462.057L359.9 462.125L522.457 462.387L676.568 462.355L717.333 462.284C724.573 462.253 731.897 461.958 739.127 462.259C743.571 462.443 748.005 463.006 751.774 465.503C756.159 468.407 758.855 472.642 759.9 477.779C761.087 483.62 760.49 490.061 760.467 496.007L760.412 523.218L760.425 554.009C760.433 559.874 760.779 565.927 760.226 571.762C759.901 575.203 759.226 578.461 757.221 581.343C754.141 585.772 749.305 588.183 744.137 589.245C711.098 588.456 677.92 589.171 644.865 589.145L381.555 589.126C360.931 588.965 340.291 589.192 319.665 589.272C308.78 589.314 297.724 589.663 286.851 589.126C282.926 588.931 278.78 587.977 275.348 586.015C271.142 583.611 267.787 578.489 266.707 573.822C265.221 567.4 265.951 559.683 265.972 553.086L266.074 522.332C266.109 508.362 265.026 493.615 266.376 479.732C266.689 476.508 267.341 473.896 269.123 471.13C272.318 466.166 277.307 463.36 282.947 462.094Z"/>
	<path fill="white" d="M294.97 473.745C335.937 473.253 376.939 473.61 417.91 473.684L585.939 473.758L690.203 473.581L722.547 473.62C728.576 473.635 734.748 473.392 740.758 473.821C742.753 473.963 744.548 474.402 746.025 475.821C748.169 477.881 748.458 479.985 748.528 482.854C748.956 500.431 748.554 518.165 748.677 535.765C748.745 545.656 749.754 561.754 748.382 571.061C748.112 572.893 747.508 574.8 746.147 576.124C742.931 579.255 735.957 578.188 731.75 578.093L417.124 577.638L327.235 577.844L301.726 577.976C296.666 578.003 291.275 578.349 286.255 577.751C282.203 577.268 280.523 575.683 278.077 572.513C276.696 557.537 277.546 541.791 277.515 526.717C277.487 512.57 276.625 497.801 277.691 483.718C277.856 481.531 277.998 477.725 279.635 476.14C282.792 473.083 290.78 473.822 294.97 473.745Z"/>
	<path d="M419.002 515.502L451.724 515.536C451.882 522.609 451.758 529.668 451.627 536.74C440.747 537.095 429.721 536.725 418.827 536.695C419.107 529.643 418.999 522.56 419.002 515.502Z"/>
	<path d="M315.55 515.603Q332.056 515.405 348.563 515.484L348.516 536.627L315.482 536.615Q315.345 526.108 315.55 515.603Z"/>
	<path d="M573.085 515.543C583.981 515.337 595.008 515.429 605.9 515.786Q605.915 526.233 605.75 536.678Q589.247 536.784 572.745 536.594C572.58 529.605 572.465 522.509 573.085 515.543Z"/>
	<path d="M469.884 515.498C480.773 515.243 491.962 515.192 502.837 515.788C503.118 522.69 503 529.657 503.067 536.567C492.068 537.127 480.9 536.81 469.884 536.687L469.884 515.498Z"/>
	<path d="M366.592 515.663Q383.311 515.432 400.028 515.778C400.263 522.736 400.081 529.755 400.086 536.719C388.889 536.831 377.673 536.668 366.474 536.64L366.592 515.663Z"/>
	<path d="M624.33 515.569L657.963 515.511L657.962 536.686Q641.202 536.66 624.443 536.864L624.33 515.569Z"/>
	<path d="M521.273 515.691C532.434 515.319 543.733 515.366 554.898 515.611C554.992 522.571 555.463 529.81 554.875 536.736Q538.175 536.878 521.475 536.721Q520.922 526.21 521.273 515.691Z"/>
	<path d="M676.061 515.428L710.426 515.491L710.558 536.847L675.897 536.74Q675.837 526.083 676.061 515.428Z"/>
	<path d="M840.337 638.188Q841.273 638.078 842.213 638.012C865.957 636.245 892.307 645.974 910.027 661.668C928.025 677.608 936.137 699.084 937.994 722.637C938.611 730.47 938.399 738.34 938.859 746.184C951.338 746.643 962.862 751.501 971.732 760.34C978.007 766.594 981.892 774.332 983.779 782.971C986.217 794.132 984.977 811.465 984.979 823.298L985.021 891.983L984.934 919.127C984.812 938.114 983.661 953.42 969.455 967.467C962.92 973.928 955.56 978.109 946.666 980.436C933.166 983.967 918.13 982.546 904.266 982.522L859.75 982.495L796.044 982.494C783.401 982.527 766.469 983.875 754.542 981.379Q752.906 981.044 751.295 980.603Q749.685 980.162 748.106 979.617Q746.527 979.072 744.988 978.426Q743.448 977.779 741.953 977.034Q740.459 976.289 739.016 975.448Q737.573 974.607 736.188 973.674Q734.803 972.741 733.482 971.72Q732.16 970.699 730.908 969.594C720.446 960.53 715.494 948.394 714.666 934.798C713.975 923.437 714.483 911.771 714.474 900.374L714.358 838.789L714.329 804.991C714.318 798.206 713.611 790.398 715.005 783.744C716.686 775.723 720.9 767.907 726.347 761.832Q727.145 760.941 727.987 760.091Q728.829 759.241 729.712 758.434Q730.596 757.627 731.518 756.865Q732.44 756.102 733.399 755.387Q734.358 754.672 735.352 754.005Q736.345 753.339 737.371 752.723Q738.396 752.106 739.451 751.542Q740.506 750.977 741.588 750.466Q742.669 749.955 743.775 749.498Q744.881 749.041 746.008 748.64Q747.135 748.239 748.281 747.895Q749.427 747.55 750.588 747.263Q751.75 746.976 752.924 746.748Q754.099 746.519 755.283 746.349Q756.467 746.179 757.658 746.068Q758.85 745.957 760.045 745.906C759.772 721.898 762.406 691.566 777.286 671.989C793.276 650.954 814.736 641.572 840.337 638.188Z"/>
	<path fill="white" d="M844.716 649.225L845.574 649.218C866.328 649.171 890.76 658.215 905.381 673.139C925.42 693.593 926.733 719.49 926.525 746.561L912.575 746.489C912.101 725.268 914.407 705.066 899.714 687.538C888.816 674.536 871.351 666.489 854.622 665.064Q849.616 664.527 844.582 664.543C828.88 664.479 812.285 670.659 801.148 681.92C783.553 699.709 785.448 723.587 785.453 746.672L772.108 746.645C772.301 720.609 773.41 693.634 792.007 673.401C805.402 658.828 824.997 650.148 844.716 649.225Z"/>
	<path fill="white" d="M838.356 676.648Q841.497 676.379 844.649 676.325C859.783 676.18 876.876 680.863 887.846 691.775C902.986 706.835 901.062 726.38 901.096 746.012C887.241 746.366 873.337 746.095 859.473 746.206Q828.404 746.525 797.333 746.349C797.461 728.719 794.558 710.743 805.556 695.495C813.402 684.618 825.402 678.835 838.356 676.648Z"/>
	<path fill="white" d="M759.31 757.708C769.572 757.247 779.977 757.85 790.257 757.889L851.233 757.79L911.54 757.837C921.772 757.866 932.559 757.184 942.734 758.174C947.12 758.601 951.424 760.188 955.252 762.34C962.941 766.661 969.722 774.536 971.892 783.219C974.437 793.404 973.385 805.644 973.415 816.107L973.365 868.483L973.432 909.703C973.433 917.966 973.822 926.492 972.971 934.713C972.322 940.979 970.856 945.911 967.562 951.31C961.502 961.243 952.041 967.521 940.876 970.283Q939.487 970.568 938.081 970.754C928.206 972.067 917.34 971.142 907.338 971.12L847.354 971.056L790.932 971.181C780.294 971.241 768.742 972.221 758.235 970.647C752.343 969.764 745.994 966.442 741.297 962.847C732.888 956.41 727.78 948.041 726.461 937.487C725.502 929.819 726.002 921.821 726.048 914.092L726.189 875.482L725.993 818.269C725.982 808.738 725.237 798.427 726.405 788.984C727.2 782.555 729.333 775.901 733.374 770.759C739.522 762.936 749.657 758.836 759.31 757.708Z"/>
	<path d="M845.386 802.69C849.121 802.354 853.02 802.657 856.679 803.46Q857.563 803.653 858.437 803.888Q859.31 804.124 860.171 804.403Q861.032 804.681 861.878 805.002Q862.724 805.322 863.554 805.684Q864.383 806.046 865.194 806.448Q866.004 806.85 866.794 807.292Q867.584 807.733 868.351 808.213Q869.118 808.693 869.861 809.21Q870.603 809.727 871.319 810.28Q872.036 810.833 872.724 811.421Q873.412 812.008 874.07 812.629Q874.729 813.25 875.356 813.902Q875.983 814.554 876.577 815.237Q877.171 815.919 877.731 816.63Q878.291 817.341 878.815 818.078Q879.34 818.816 879.827 819.578C885.078 827.885 886.966 839.246 884.803 848.824C882.545 858.827 875.654 867.197 867.091 872.585Q869.196 885.298 871.661 897.946C872.862 903.998 875.098 911.09 875.067 917.203C875.059 918.748 874.623 920.023 873.474 921.105C869.622 924.731 856.205 923.067 850.875 923.004C843.863 923.059 831.875 924.192 825.446 922.455C824.096 922.091 823.492 921.7 822.828 920.432C822.002 918.854 821.947 916.58 822.007 914.844C822.152 910.648 823.351 906.219 824.088 902.075C825.802 892.432 827.247 882.618 829.857 873.172Q827.63 871.782 825.523 870.216C817.37 864.09 812.952 855.203 811.596 845.2C810.191 834.839 812.574 824.67 819.06 816.387C825.63 807.996 834.999 803.894 845.386 802.69Z"/>
	<path fill="white" d="M840.692 876.647C845.89 877.39 850.97 877.185 856.196 876.891C858.513 888.387 860.334 899.963 862.792 911.433L856.055 911.561Q845.154 911.678 834.255 911.459C836.512 899.861 838.757 888.304 840.692 876.647Z"/>
	<path fill="white" d="M843.333 814.612C849.402 813.926 855.32 814.545 860.751 817.551C866.837 820.92 871.573 826.665 873.362 833.424C875.096 839.98 874.001 847.322 870.593 853.169C866.663 859.91 860.436 863.546 853.113 865.419C847.61 865.797 842.723 865.92 837.557 863.528C830.932 860.462 825.98 854.45 823.732 847.558C821.714 841.371 822.184 834.881 825.157 829.082C828.992 821.603 835.437 817.058 843.333 814.612Z"/>
	<path d="M197.744 664.713C237.556 663.422 277.957 679.189 307.031 706.258C339.363 736.36 357.251 776.931 358.762 820.999C360.222 863.598 343.436 904.258 314.384 935.112C285.384 965.91 245.009 982.145 203.069 983.494Q201.174 983.519 199.279 983.5Q197.384 983.481 195.49 983.418Q193.596 983.354 191.704 983.247Q189.812 983.14 187.923 982.989Q186.034 982.838 184.149 982.643Q182.264 982.448 180.384 982.21Q178.504 981.971 176.63 981.689Q174.756 981.406 172.889 981.081Q171.022 980.755 169.163 980.386Q167.305 980.017 165.455 979.605Q163.605 979.192 161.766 978.737Q159.926 978.282 158.097 977.785Q156.269 977.287 154.452 976.747Q152.636 976.207 150.832 975.625Q149.029 975.042 147.239 974.419Q145.45 973.795 143.676 973.13Q141.901 972.464 140.143 971.758Q138.384 971.051 136.642 970.304Q134.901 969.557 133.177 968.77Q131.453 967.983 129.748 967.156Q128.043 966.328 126.358 965.462Q124.672 964.595 123.008 963.69Q121.343 962.784 119.7 961.84Q118.056 960.896 116.436 959.914Q114.815 958.932 113.217 957.913Q111.62 956.894 110.046 955.838Q108.473 954.781 106.924 953.689Q105.376 952.597 103.853 951.469Q102.33 950.34 100.834 949.177Q99.338 948.014 97.8693 946.816Q96.4007 945.618 94.9603 944.387Q93.5199 943.156 92.1085 941.891Q90.679 940.604 89.2816 939.283Q87.8842 937.962 86.5198 936.606Q85.1554 935.251 83.8249 933.862Q82.4944 932.474 81.1985 931.053Q79.9026 929.632 78.6422 928.179Q77.3818 926.727 76.1575 925.243Q74.9333 923.76 73.746 922.247Q72.5587 920.734 71.4091 919.193Q70.2595 917.651 69.1483 916.081Q68.037 914.512 66.9649 912.915Q65.8927 911.318 64.8602 909.696Q63.8277 908.073 62.8355 906.426Q61.8434 904.779 60.8921 903.107Q59.9409 901.436 59.0312 899.741Q58.1215 898.047 57.2538 896.33Q56.3862 894.614 55.5611 892.877Q54.736 891.14 53.9541 889.383Q53.1721 887.626 52.4337 885.85Q51.6953 884.074 51.0009 882.281Q50.3065 880.487 49.6566 878.677Q49.0067 876.867 48.4015 875.042Q47.7964 873.216 47.2365 871.376Q46.6766 869.536 46.1623 867.683Q45.6479 865.83 45.1794 863.965Q44.7109 862.1 44.2886 860.224Q43.8662 858.347 43.4903 856.461Q43.1143 854.575 42.785 852.68Q42.4557 850.786 42.1731 848.883Q41.8906 846.981 41.6552 845.072Q41.4197 843.164 41.2313 841.25Q41.0429 839.336 40.9018 837.418Q40.7607 835.5 40.667 833.579Q40.5596 831.615 40.5015 829.649Q40.4433 827.683 40.4345 825.717Q40.4257 823.75 40.4662 821.783Q40.5066 819.817 40.5964 817.852Q40.6862 815.888 40.8252 813.926Q40.9641 811.964 41.1523 810.006Q41.3404 808.048 41.5776 806.096Q41.8147 804.144 42.1007 802.198Q42.3868 800.252 42.7215 798.314Q43.0562 796.376 43.4394 794.447Q43.8226 792.518 44.254 790.599Q44.6855 788.68 45.1649 786.773Q45.6443 784.865 46.1714 782.97Q46.6985 781.075 47.2729 779.194Q47.8473 777.313 48.4687 775.447Q49.0901 773.581 49.7581 771.731Q50.426 769.882 51.1402 768.049Q51.8543 766.216 52.6142 764.402Q53.3741 762.588 54.1792 760.794Q54.9843 759 55.8341 757.226Q56.6839 755.452 57.578 753.7Q58.472 751.948 59.4097 750.22Q60.3474 748.491 61.3281 746.786Q62.3088 745.081 63.332 743.402Q64.3551 741.722 65.42 740.068Q66.485 738.415 67.591 736.789Q68.6971 735.162 69.8436 733.564Q70.9901 731.966 72.1762 730.397Q73.3624 728.828 74.5876 727.29Q75.8127 725.751 77.076 724.244Q78.3394 722.737 79.6401 721.261Q80.9408 719.786 82.2781 718.344C113.551 684.093 151.393 666.776 197.744 664.713Z"/>
	<path fill="white" d="M191.567 676.713C191.656 676.707 191.745 676.699 191.834 676.695C229.723 675.101 267.354 686.159 295.876 711.843C325.86 738.844 344.987 775.256 346.934 815.984C348.839 855.837 335.824 894.465 308.804 924.096Q307.604 925.421 306.372 926.716Q305.14 928.011 303.876 929.275Q302.612 930.54 301.318 931.772Q300.023 933.005 298.699 934.206Q297.374 935.406 296.021 936.573Q294.667 937.741 293.285 938.875Q291.903 940.008 290.493 941.107Q289.084 942.207 287.647 943.271Q286.211 944.335 284.749 945.364Q283.287 946.392 281.8 947.384Q280.313 948.376 278.802 949.332Q277.291 950.287 275.757 951.204Q274.223 952.122 272.667 953.001Q271.111 953.881 269.533 954.722Q267.956 955.562 266.358 956.364Q264.76 957.166 263.143 957.928Q261.526 958.69 259.891 959.412Q258.256 960.134 256.603 960.816Q254.951 961.497 253.282 962.138Q251.613 962.778 249.929 963.377Q248.245 963.977 246.546 964.534Q244.848 965.092 243.136 965.607Q241.425 966.123 239.701 966.596Q237.977 967.069 236.242 967.499Q234.507 967.93 232.762 968.317Q231.017 968.705 229.263 969.049Q227.509 969.394 225.747 969.695Q223.985 969.996 222.216 970.253Q220.447 970.511 218.672 970.725Q216.898 970.939 215.118 971.109Q213.339 971.279 211.556 971.405Q209.773 971.531 207.987 971.613Q207.336 971.668 206.684 971.714C169.635 974.316 130.325 959.569 102.547 935.358C74.062 910.53 55.1806 874.975 52.7428 837.017Q52.6066 835.15 52.5169 833.281Q52.4273 831.411 52.3843 829.54Q52.3412 827.669 52.3449 825.797Q52.3485 823.925 52.3988 822.054Q52.4491 820.183 52.546 818.314Q52.643 816.445 52.7864 814.578Q52.9299 812.712 53.1199 810.85Q53.3099 808.988 53.5462 807.131Q53.7825 805.275 54.0651 803.424Q54.3476 801.574 54.6762 799.731Q55.0047 797.889 55.3792 796.055Q55.7536 794.221 56.1736 792.397Q56.5936 790.573 57.0589 788.76Q57.5243 786.947 58.0346 785.146Q58.545 783.346 59.1002 781.558Q59.6553 779.771 60.2548 777.997Q60.8543 776.224 61.4978 774.467Q62.1414 772.709 62.8285 770.968Q63.5156 769.227 64.246 767.504Q64.9763 765.78 65.7493 764.076Q66.5224 762.371 67.3377 760.686Q68.153 759.001 69.0101 757.337Q69.8671 755.673 70.7654 754.031Q71.6637 752.389 72.6026 750.77Q73.5415 749.151 74.5205 747.556Q75.4995 745.96 76.518 744.39Q77.5365 742.82 78.5938 741.275Q79.651 739.731 80.7465 738.213Q81.842 736.695 82.9749 735.205Q84.1079 733.716 85.2776 732.254Q86.4474 730.793 87.6532 729.362Q88.859 727.93 90.1001 726.529Q91.2965 725.167 92.526 723.835Q93.7555 722.503 95.0174 721.202Q96.2793 719.901 97.5729 718.631Q98.8664 717.361 100.191 716.123Q101.515 714.885 102.87 713.68Q104.224 712.476 105.608 711.305Q106.991 710.133 108.403 708.997Q109.815 707.86 111.255 706.758Q112.695 705.657 114.161 704.591Q115.627 703.525 117.119 702.495Q118.611 701.466 120.128 700.473Q121.645 699.481 123.186 698.526Q124.727 697.571 126.29 696.655Q127.854 695.738 129.44 694.86Q131.026 693.982 132.633 693.143Q134.24 692.305 135.867 691.506Q137.495 690.707 139.141 689.948Q140.787 689.19 142.452 688.472Q144.116 687.754 145.798 687.077Q147.48 686.4 149.177 685.765Q150.875 685.13 152.588 684.537Q154.301 683.944 156.028 683.393Q157.755 682.842 159.495 682.334Q161.235 681.825 162.987 681.36Q164.739 680.895 166.502 680.473Q168.265 680.051 170.038 679.672Q171.81 679.294 173.592 678.959Q175.373 678.624 177.163 678.333Q178.952 678.042 180.748 677.795Q182.544 677.548 184.345 677.346Q186.146 677.143 187.952 676.985Q189.758 676.827 191.567 676.713Z"/>
	<path d="M193.62 713.71Q194.927 713.645 196.234 713.61Q197.542 713.576 198.85 713.572Q200.159 713.569 201.466 713.596Q202.774 713.623 204.081 713.681Q205.388 713.739 206.693 713.828Q207.999 713.916 209.301 714.036Q210.604 714.155 211.904 714.305Q213.203 714.455 214.499 714.636Q215.795 714.817 217.086 715.028Q218.377 715.239 219.663 715.481Q220.948 715.722 222.228 715.994Q223.508 716.266 224.781 716.567Q226.054 716.869 227.319 717.201Q228.585 717.532 229.842 717.894Q231.099 718.255 232.348 718.646Q233.596 719.037 234.835 719.457Q236.074 719.877 237.302 720.327Q238.531 720.776 239.749 721.254Q240.967 721.732 242.173 722.239Q243.379 722.745 244.573 723.28Q245.767 723.815 246.948 724.378Q248.128 724.941 249.296 725.531Q250.463 726.122 251.616 726.74Q252.769 727.358 253.908 728.002Q255.046 728.647 256.169 729.319Q257.291 729.99 258.398 730.688Q259.505 731.385 260.595 732.109Q261.684 732.833 262.757 733.582Q263.829 734.331 264.884 735.105Q265.939 735.879 266.975 736.678Q268.011 737.477 269.028 738.299Q270.045 739.122 271.042 739.969Q272.088 740.854 273.112 741.765Q274.136 742.676 275.137 743.612Q276.138 744.547 277.116 745.507Q278.094 746.468 279.048 747.451Q280.002 748.435 280.931 749.442Q281.861 750.449 282.765 751.478Q283.67 752.508 284.549 753.559Q285.428 754.611 286.28 755.683Q287.133 756.756 287.959 757.849Q288.786 758.943 289.585 760.056Q290.384 761.169 291.155 762.302Q291.927 763.434 292.67 764.586Q293.413 765.737 294.128 766.906Q294.843 768.075 295.529 769.261Q296.215 770.448 296.872 771.651Q297.528 772.854 298.155 774.072Q298.782 775.291 299.378 776.524Q299.975 777.758 300.541 779.006Q301.107 780.254 301.643 781.515Q302.178 782.777 302.682 784.051Q303.186 785.326 303.659 786.612Q304.132 787.898 304.573 789.196Q305.014 790.493 305.422 791.801Q305.831 793.109 306.208 794.427Q306.585 795.744 306.929 797.071Q307.273 798.397 307.584 799.732Q307.896 801.066 308.174 802.408Q308.453 803.75 308.698 805.098Q308.944 806.446 309.156 807.8Q309.368 809.154 309.547 810.512Q309.726 811.871 309.872 813.234Q310.017 814.596 310.129 815.962C312.603 844.516 304.16 873.784 285.508 895.761C265.059 919.854 237.55 932.516 206.346 934.981C197.289 935.143 188.185 934.985 179.226 933.508C160.641 930.445 140.458 920.904 126.291 908.485C104.344 889.245 89.9256 862.809 88.1446 833.483C86.3486 803.909 95.5607 774.705 115.398 752.397C135.863 729.385 162.857 715.663 193.62 713.71Z"/>
	<path fill="white" d="M196.285 772.687C203.416 772.152 210.644 773.733 216.716 777.56C224.561 782.503 229.303 790.568 231.247 799.513C233.104 808.056 231.615 816.453 226.812 823.78C220.988 832.665 212.362 837.824 202.103 840.022C193.021 840.103 184.324 837.207 177.215 831.471C170.33 825.916 166.349 818.162 165.422 809.395C164.473 800.432 167.114 791.892 172.785 784.904C178.955 777.302 186.65 773.721 196.285 772.687Z"/>
	<path fill="white" d="M192.839 853.178C207.055 851.66 220.798 855.657 232.208 864.238C246.397 874.91 252.75 889.686 255.256 906.826C239.958 916.907 223.775 921.912 205.623 923.339C183.214 924.18 161.429 918.773 142.678 906.229C145.176 894.362 148.368 884.13 155.795 874.349C165.223 861.935 177.516 855.311 192.839 853.178Z"/>
	<path fill="white" d="M192.595 725.2C197.128 724.759 201.836 724.907 206.37 725.271C233.525 727.451 257.641 739.993 275.148 760.833C292.529 781.522 301.023 807.271 298.667 834.325C296.506 859.143 284.582 883.874 265.4 900.013C263.897 892.606 262.303 885.588 258.953 878.758C250.867 862.269 237.93 851.106 220.75 845.157Q221.306 844.808 221.856 844.448C232.428 837.531 240.166 827.169 242.671 814.653Q242.896 813.558 243.065 812.453Q243.235 811.349 243.348 810.237Q243.462 809.125 243.52 808.009Q243.578 806.892 243.579 805.775Q243.581 804.657 243.526 803.541Q243.472 802.424 243.361 801.312Q243.251 800.2 243.085 799.094Q242.918 797.989 242.697 796.894Q242.475 795.798 242.199 794.715Q241.923 793.632 241.592 792.564Q241.262 791.497 240.878 790.447Q240.495 789.397 240.059 788.368Q239.623 787.339 239.136 786.332Q238.649 785.326 238.112 784.346Q237.575 783.366 236.99 782.414Q236.405 781.461 235.772 780.54C228.735 770.133 219.141 764.018 206.913 761.657C200.991 760.837 195.002 760.839 189.162 762.214C177.827 764.884 166.362 772.445 160.262 782.48C154.128 792.571 152.176 805.546 155.112 816.969C158.407 829.789 166.131 838.58 177.334 845.163Q171.418 847.426 165.943 850.609C146.942 861.647 138.055 878.234 132.687 898.879C114.731 882.322 102.66 861.328 100.2 836.783C97.4529 809.387 105.03 783.664 122.502 762.32C140.27 740.614 164.751 727.917 192.595 725.2Z"/>
	<path d="M502.512 39.2026C530.43 36.158 564.243 45.1303 587.515 60.544C618.858 81.3027 642.138 114.13 649.617 151.121C657.412 189.673 649.72 224.725 628.089 257.394C628.952 262.585 630.005 267.766 630.69 272.984C634.611 302.875 625.462 334.592 607.053 358.309C586.401 384.915 557.197 399.567 524.125 403.732C507.272 406.442 484.536 402.087 468.904 396.017Q467.546 395.474 466.201 394.898Q464.857 394.323 463.527 393.715Q462.197 393.107 460.882 392.466Q459.567 391.826 458.268 391.154Q456.969 390.482 455.686 389.779Q454.404 389.075 453.139 388.341Q451.874 387.607 450.628 386.842Q449.381 386.077 448.153 385.283Q446.925 384.488 445.717 383.664Q444.509 382.839 443.322 381.986Q442.134 381.132 440.967 380.25Q439.801 379.368 438.656 378.458Q437.511 377.548 436.388 376.611Q435.266 375.673 434.166 374.708Q433.067 373.744 431.991 372.753Q430.916 371.762 429.865 370.745Q428.813 369.728 427.787 368.686Q426.761 367.644 425.76 366.578Q424.759 365.511 423.785 364.42Q422.81 363.33 421.863 362.216Q420.915 361.102 419.995 359.965Q419.074 358.829 418.182 357.67Q417.289 356.511 416.425 355.331Q415.561 354.151 414.726 352.951Q413.89 351.75 413.085 350.53Q412.279 349.309 411.503 348.069Q410.727 346.83 409.981 345.571Q409.235 344.313 408.521 343.037Q407.806 341.761 407.122 340.469Q406.438 339.176 405.786 337.867Q405.134 336.557 404.514 335.233Q403.894 333.908 403.306 332.569C394.566 312.4 391.874 289.498 394.649 267.766C395.214 263.34 395.719 258.303 397.355 254.154C385.545 236.867 377.273 211.571 375.371 190.834Q375.218 189.135 375.106 187.433Q374.995 185.73 374.925 184.026Q374.855 182.322 374.827 180.616Q374.799 178.91 374.813 177.204Q374.826 175.498 374.882 173.793Q374.937 172.088 375.035 170.385Q375.132 168.682 375.271 166.982Q375.409 165.282 375.59 163.585Q375.77 161.889 375.992 160.198Q376.214 158.506 376.477 156.821Q376.74 155.135 377.045 153.457Q377.349 151.778 377.695 150.108Q378.04 148.437 378.426 146.775Q378.812 145.114 379.239 143.462Q379.666 141.81 380.133 140.17Q380.6 138.529 381.107 136.9Q381.614 135.271 382.161 133.655Q382.708 132.04 383.294 130.438Q383.88 128.835 384.505 127.248Q385.13 125.661 385.794 124.09Q386.458 122.518 387.16 120.964Q387.862 119.409 388.602 117.872Q389.342 116.335 390.12 114.816Q390.897 113.298 391.711 111.799Q392.526 110.3 393.377 108.821Q394.227 107.343 395.114 105.885Q396.001 104.428 396.923 102.993Q397.845 101.557 398.802 100.145Q399.759 98.733 400.75 97.3447Q401.742 95.9564 402.767 94.5927Q403.792 93.229 404.85 91.8908Q405.908 90.5527 406.998 89.2408C431.247 60.1579 464.736 42.6233 502.512 39.2026Z"/>
	<path fill="white" d="M504.852 98.6992C511.645 97.8699 519.306 98.3322 526.061 99.3982Q527.042 99.5582 528.019 99.7423Q528.997 99.9263 529.969 100.134Q530.941 100.342 531.908 100.574Q532.875 100.806 533.836 101.061Q534.797 101.317 535.751 101.596Q536.706 101.875 537.653 102.177Q538.6 102.479 539.54 102.805Q540.479 103.13 541.41 103.479Q542.342 103.827 543.264 104.198Q544.187 104.569 545.1 104.963Q546.013 105.357 546.916 105.773Q547.819 106.189 548.711 106.627Q549.604 107.065 550.486 107.525Q551.367 107.985 552.237 108.466Q553.107 108.947 553.965 109.45Q554.823 109.952 555.669 110.476Q556.514 110.999 557.346 111.543Q558.179 112.087 558.997 112.652Q559.816 113.216 560.62 113.8Q561.425 114.384 562.215 114.988Q563.005 115.592 563.78 116.215Q564.555 116.838 565.314 117.48Q566.074 118.122 566.817 118.782Q567.561 119.442 568.288 120.12Q569.015 120.799 569.725 121.495Q570.435 122.191 571.128 122.904Q571.82 123.617 572.496 124.347Q573.171 125.077 573.828 125.823Q574.485 126.57 575.123 127.332Q575.762 128.094 576.381 128.872Q577.001 129.65 577.601 130.442Q578.201 131.235 578.782 132.042C593.348 152.096 596.352 174.136 592.556 198.086C573.691 181.273 552.615 172.05 527.552 168.613C492.342 163.629 463.533 174.489 435.263 194.552C434.7 192.21 434.206 189.872 433.882 187.484C431.132 167.271 436.789 145.59 449.309 129.455C462.709 112.185 483.378 101.415 504.852 98.6992Z"/>
	<path fill="white" d="M508.241 50.7123C536.188 48.9194 566.355 58.484 588.573 75.4499C615.793 96.2363 635.547 128.851 639.887 163.006C644.031 195.627 635.903 228.125 615.744 254.116C621.753 278.599 621.38 304.213 611.649 327.715C601.314 352.679 579.49 373.849 554.618 384.063Q553.359 384.588 552.086 385.081Q550.814 385.575 549.53 386.036Q548.246 386.497 546.951 386.926Q545.655 387.355 544.35 387.752Q543.044 388.149 541.729 388.512Q540.414 388.876 539.09 389.207Q537.766 389.538 536.435 389.835Q535.103 390.133 533.764 390.397Q532.426 390.661 531.081 390.892Q529.736 391.122 528.386 391.319Q527.035 391.516 525.681 391.679Q524.326 391.842 522.968 391.971Q521.609 392.101 520.248 392.196Q518.887 392.291 517.524 392.352Q516.161 392.413 514.796 392.44Q513.432 392.467 512.068 392.46Q510.703 392.452 509.339 392.411Q507.976 392.37 506.613 392.295Q505.251 392.219 503.891 392.11Q502.53 392 501.174 391.857Q499.817 391.713 498.464 391.536Q497.111 391.359 495.763 391.148Q494.415 390.937 493.072 390.692Q491.73 390.447 490.394 390.169Q489.058 389.891 487.73 389.579Q486.401 389.268 485.081 388.923Q483.761 388.578 482.45 388.201Q481.138 387.823 479.837 387.413Q478.536 387.003 477.245 386.56Q475.954 386.117 474.675 385.642Q473.396 385.168 472.129 384.661Q470.862 384.154 469.608 383.616C444.113 372.905 423.441 350.524 413.186 324.936C402.907 299.292 401.965 268.611 413.087 243.042C424.93 215.813 447.656 196.533 474.876 185.718Q478.889 184.206 483.012 183.029Q487.135 181.853 491.341 181.019Q495.547 180.185 499.808 179.7Q504.068 179.215 508.354 179.082C531.717 178.161 556.395 185.135 575.387 198.894C583.118 204.495 589.876 211.129 596.868 217.588C607.082 197.176 608.705 174.365 601.935 152.483C594.804 129.434 577.609 108.739 556.192 97.5724C533.668 85.8282 508.643 83.504 484.359 91.1465C462.745 97.9488 442.553 114.49 432.16 134.738C420.774 156.919 418.447 179.57 426.179 203.361C416.003 213.841 408.522 225.739 401.845 238.632C393.585 221.423 388.021 204.895 386.851 185.645C384.672 149.804 396.943 118.352 420.718 91.693C443.212 66.4689 474.809 52.574 508.241 50.7123Z"/>
	<path d="M502.432 244.13C509.083 243.867 515.798 244.185 522.436 244.609L522.588 260.163Q527.407 263.03 532.285 265.795Q539.422 262.279 546.649 258.953C550.377 264.801 554.105 270.64 556.797 277.056C553.425 279.869 549.651 282.355 546.101 284.95C545.989 289.458 546.177 294.006 546.237 298.516C549.998 301.325 554.134 303.896 557.249 307.432C554.257 313.289 550.311 319.065 546.666 324.558C541.821 323.003 537.169 320.952 532.481 318.983C529.672 321.293 526.592 323.187 523.532 325.142C523.492 330.032 523.071 335.077 522.354 339.91C515.427 340.042 508.483 339.977 501.554 340.005C501.202 334.627 501.063 329.255 500.933 323.868Q496.025 320.867 491.045 317.988C486.825 320.381 482.189 322.549 477.612 324.143C473.668 318.869 470.372 312.798 467.224 307.02C470.707 303.729 474.574 300.945 478.408 298.084L478.513 285.054C474.703 282.787 471.143 279.616 467.809 276.692C470.033 270.615 474.202 264.651 478.142 259.562C482.807 261.611 487.386 263.735 491.933 266.037L501.744 259.628C501.679 254.727 501.043 248.819 502.432 244.13Z"/>
</svg>
