<?xml version="1.0" encoding="UTF-8" standalone="no"?>
<!DOCTYPE svg PUBLIC "-//W3C//DTD SVG 1.1//EN" "http://www.w3.org/Graphics/SVG/1.1/DTD/svg11.dtd">
<svg width="100%" height="100%" viewBox="0 0 259 259" version="1.1" xmlns="http://www.w3.org/2000/svg" xmlns:xlink="http://www.w3.org/1999/xlink" xml:space="preserve" xmlns:serif="http://www.serif.com/" style="fill-rule:evenodd;clip-rule:evenodd;stroke-linejoin:round;stroke-miterlimit:2;">
    <g transform="matrix(4.16667,0,0,4.16667,0,0)">
        <g>
            <path d="M19.926,57.528L7.395,57.528C5.524,57.528 4.003,56.006 4.003,54.135L4.003,41.594L19.926,41.594L19.926,57.528Z" style="fill:#1180FF"/>
            <path d="M38.712,57.528L22.928,57.528L22.928,41.524L38.712,41.604L38.712,57.528Z" style="fill:#1180FF"/>
            <path d="M57.518,38.592L41.644,38.592L41.714,22.808L57.518,22.878L57.518,38.592Z" style="fill:#1180FF"/>
            <path d="M38.732,19.796L22.928,19.736L22.928,4.003L38.802,4.003L38.732,19.796Z" style="fill:#1180FF"/>
            <path d="M4.013,22.818L19.926,22.818L19.846,38.602L4.013,38.602L4.013,22.818Z" style="fill:#1180FF"/>
            <path d="M19.936,19.816L4.013,19.816L4.013,7.385C4.013,5.524 5.534,4.003 7.405,4.003L19.936,4.003L19.936,19.816Z" style="fill:#1180FF"/>
        </g>
        <path d="M54.135,1L7.395,1C3.872,1 1,3.862 1,7.385L1,54.125C1,57.648 3.872,60.52 7.395,60.52L54.135,60.52C57.658,60.52 60.52,57.648 60.52,54.125L60.52,7.385C60.52,3.872 57.658,1 54.135,1ZM41.714,21.297L41.724,21.297L41.724,21.307L41.714,21.307L41.714,21.297ZM4.013,22.818L19.926,22.818L19.846,38.602L4.013,38.602L4.013,22.818ZM19.926,57.528L7.395,57.528C5.524,57.528 4.003,56.006 4.003,54.135L4.003,41.594L19.926,41.594L19.926,57.528ZM19.936,19.816L4.013,19.816L4.013,7.385C4.013,5.524 5.534,4.003 7.405,4.003L19.936,4.003L19.936,19.816ZM38.712,57.528L22.928,57.528L22.928,41.524L38.712,41.604L38.712,57.528ZM38.632,38.592L22.848,38.512L22.918,22.728L38.712,22.788L38.632,38.592ZM38.732,19.796L22.928,19.736L22.928,4.003L38.802,4.003L38.732,19.796ZM57.518,54.135C57.518,56.006 55.996,57.528 54.135,57.528L41.714,57.528L41.714,41.594L57.518,41.594L57.518,54.135ZM57.518,38.592L41.644,38.592L41.714,22.808L57.518,22.878L57.518,38.592ZM57.518,19.886L41.734,19.816L41.804,4.013L54.135,4.013C55.996,4.013 57.518,5.534 57.518,7.395L57.518,19.886Z" style="fill:white;fill-rule:nonzero;"/>
    </g>
</svg>
